<?xml version="1.0" encoding="UTF-8" standalone="no"?>
<!-- Created with Inkscape (http://www.inkscape.org/) -->

<svg
   width="210.14062"
   height="36.078629"
   viewBox="0 0 55.599707 9.5458036"
   version="1.1"
   id="svg1"
   xml:space="preserve"
   xmlns:xlink="http://www.w3.org/1999/xlink"
   xmlns="http://www.w3.org/2000/svg"
   xmlns:svg="http://www.w3.org/2000/svg"><defs
     id="defs1"><linearGradient
       id="swatch413"><stop
         style="stop-color:#000000;stop-opacity:1;"
         offset="0"
         id="stop413" /></linearGradient><linearGradient
       id="linearGradient401"><stop
         style="stop-color:#d40000;stop-opacity:1;"
         offset="0"
         id="stop400" /><stop
         style="stop-color:#fff317;stop-opacity:1;"
         offset="1"
         id="stop401" /></linearGradient><radialGradient
       xlink:href="#linearGradient401"
       id="radialGradient456"
       gradientUnits="userSpaceOnUse"
       gradientTransform="matrix(1.0871691,0,0,1.007446,53.477285,13.232109)"
       cx="63.990456"
       cy="164.92706"
       fx="63.990456"
       fy="164.92706"
       r="3.9350705" /></defs><g
     id="layer1"
     transform="translate(-66.273193,-5.2525273)"><g
       id="g456"><g
         id="g201"
         transform="matrix(0.79622376,0,0,0.79622376,-23.969153,-131.25867)"><path
           style="font-size:10.9035px;font-family:'Arial Black';-inkscape-font-specification:'Arial Black, ';fill:#ffffff;stroke-width:0.90863"
           d="m 113.33792,175.49908 h 5.96285 v 1.67706 h -3.54044 v 1.36293 h 3.02402 v 1.5759 h -3.02402 v 3.18906 h -2.42241 z m 11.0366,6.51655 h -2.74717 l -0.378,1.2884 h -2.465 l 2.93351,-7.80495 h 2.63004 l 2.93351,7.80495 h -2.52356 z m -0.50578,-1.6877 -0.86248,-2.80573 -0.85716,2.80573 z m 4.1953,-4.82885 h 2.41176 v 2.94949 l 2.52888,-2.94949 h 3.20504 l -2.84301,2.94416 2.97078,4.86079 h -2.97078 l -1.6451,-3.21036 -1.24581,1.30438 v 1.90598 h -2.41176 z m 9.06673,0 h 6.4633 v 1.66641 h -4.04622 v 1.24048 h 3.7534 v 1.59187 h -3.7534 v 1.53863 h 4.16335 v 1.76756 h -6.58043 z m 11.53173,0 h 2.25204 l 2.93883,4.31775 v -4.31775 h 2.27334 v 7.80495 h -2.27334 l -2.92286,-4.2858 v 4.2858 h -2.26801 z m 9.0614,0 h 6.4633 v 1.66641 h -4.04622 v 1.24048 h 3.7534 v 1.59187 h -3.7534 v 1.53863 h 4.16335 v 1.76756 h -6.58043 z m 7.07556,0 h 2.28931 l 0.82522,4.36034 1.20322,-4.36034 h 2.28398 l 1.20854,4.36034 0.82522,-4.36034 h 2.27866 l -1.71964,7.80495 h -2.36385 l -1.36826,-4.91403 -1.36294,4.91403 h -2.36384 z m 11.28683,5.22282 2.29463,-0.14374 q 0.0745,0.55901 0.30347,0.85183 0.37268,0.47384 1.06479,0.47384 0.51643,0 0.79328,-0.23958 0.28217,-0.24491 0.28217,-0.56434 0,-0.30347 -0.2662,-0.54305 -0.2662,-0.23958 -1.23517,-0.45254 -1.58654,-0.3567 -2.26268,-0.94766 -0.68147,-0.59097 -0.68147,-1.50669 0,-0.60161 0.34606,-1.13401 0.35138,-0.53772 1.04882,-0.84118 0.70276,-0.30879 1.92195,-0.30879 1.49604,0 2.27866,0.55901 0.78795,0.5537 0.93702,1.76756 l -2.27333,0.1331 q -0.0905,-0.52707 -0.38333,-0.76665 -0.28749,-0.23958 -0.7986,-0.23958 -0.42059,0 -0.63355,0.18102 -0.21296,0.17569 -0.21296,0.43124 0,0.18634 0.17569,0.33541 0.17037,0.15439 0.80925,0.28749 1.58122,0.34074 2.26269,0.69212 0.68679,0.34606 0.99558,0.86248 0.31411,0.51643 0.31411,1.15531 0,0.75068 -0.41527,1.38423 -0.41527,0.63355 -1.16062,0.96364 -0.74536,0.32476 -1.87936,0.32476 -1.99117,0 -2.75782,-0.76665 -0.76666,-0.76665 -0.86781,-1.94858 z"
           id="text200"
           aria-label="FAKE NEWS " /><path
           id="path200"
           style="fill:#e51010;fill-opacity:1;stroke:none;stroke-width:0.223748"
           d="m 127.14545,183.23295 h -4.09346 -4.09346 l 2.04674,-5.50263 0.81519,-2.19164 2.45941,-0.01 0.81886,2.20149 z" /><path
           id="path201"
           style="fill:url(#radialGradient456);stroke:none;stroke-width:0.224373"
           d="m 127.16208,183.23922 h -4.11634 -4.11635 l 2.05817,-5.50264 0.81974,-2.19164 2.47318,-0.01 0.82343,2.20149 z" /><path
           style="font-size:7.42207px;font-family:'Andale Mono';-inkscape-font-specification:'Andale Mono';stroke:#000000;stroke-width:0.618499"
           d="m 123.42416,178.31578 -0.17033,1.9135 h -0.31167 l -0.17033,-1.9135 v -1.66344 h 0.65233 z m -0.31167,2.6202 q 0.19208,0 0.32254,0.13046 0.13047,0.13047 0.13047,0.32254 0,0.19208 -0.13409,0.33342 -0.13047,0.14133 -0.31892,0.14133 -0.18483,0 -0.31529,-0.13771 -0.13047,-0.14134 -0.13047,-0.33704 0,-0.1957 0.12684,-0.32254 0.13047,-0.13046 0.31892,-0.13046 z"
           id="text201"
           aria-label="!" /></g><path
         style="font-style:italic;font-weight:bold;font-size:2.10409px;font-family:Arial;-inkscape-font-specification:'Arial Bold Italic';fill:#fff417;fill-opacity:0.853059;stroke-width:0.175344"
         d="m 92.106078,7.0191648 h -0.596912 l -0.18082,0.3328736 H 91.009855 L 91.86156,5.845888 h 0.344175 l 0.244518,1.5061504 H 92.15642 Z m -0.03801,-0.2506826 -0.08733,-0.6061588 -0.363695,0.6061588 z m 1.409576,-0.2208884 h 0.673966 l -0.135615,0.6462269 q -0.119177,0.077054 -0.292806,0.1304782 -0.172601,0.053424 -0.352394,0.053424 -0.279449,0 -0.42842,-0.1263687 -0.203423,-0.1726011 -0.203423,-0.5003378 0,-0.219861 0.08733,-0.421229 0.104793,-0.2424635 0.297942,-0.3760239 0.193149,-0.1335604 0.454106,-0.1335604 0.260956,0 0.418146,0.1212318 0.158218,0.1212317 0.209588,0.3534214 l -0.288696,0.032876 q -0.03801,-0.1273961 -0.123287,-0.1921215 -0.08425,-0.064725 -0.212669,-0.064725 -0.149999,0 -0.27534,0.078081 -0.125341,0.078081 -0.196231,0.2414361 -0.07089,0.1633547 -0.07089,0.3565035 0,0.1900668 0.0863,0.2815043 0.0863,0.09041 0.252737,0.09041 0.09966,0 0.20445,-0.02774 0.104794,-0.028767 0.18082,-0.067808 l 0.04623,-0.2239705 h -0.384243 z m 0.79828,0.8044446 0.314381,-1.5061504 h 1.11677 l -0.0524,0.25171 h -0.806499 l -0.07192,0.3421201 h 0.779787 l -0.0524,0.25171 h -0.779787 l -0.09452,0.4089003 h 0.876362 l -0.05342,0.25171 z m 0.918485,-1.7784081 -0.180821,0.182875 h -0.242463 l 0.305134,-0.3092437 h 0.27534 l 0.125341,0.3092437 h -0.203422 z m 1.689025,1.7784081 H 96.594735 L 96.187889,6.3400615 95.976247,7.3520384 h -0.288695 l 0.31438,-1.5061504 h 0.289724 l 0.407872,1.0078674 0.210615,-1.0078674 h 0.287668 z m 1.406494,-0.5424607 0.312325,0.04726 q -0.09144,0.2537648 -0.274312,0.3883526 -0.182875,0.1335604 -0.428421,0.1335604 -0.276367,0 -0.43253,-0.1664368 -0.155135,-0.1664368 -0.155135,-0.4828723 0,-0.2568469 0.103766,-0.4695161 0.104793,-0.2136967 0.289723,-0.3267093 0.18493,-0.1130127 0.402736,-0.1130127 0.244518,0 0.395544,0.1315057 0.151026,0.1304782 0.177738,0.3565035 l -0.296915,0.028767 q -0.02466,-0.1315057 -0.09555,-0.1900668 -0.06986,-0.059589 -0.186984,-0.059589 -0.128424,0 -0.240409,0.078081 -0.110958,0.078082 -0.177738,0.2445183 -0.06678,0.1654094 -0.06678,0.3308188 0,0.1808202 0.0863,0.2794495 0.08733,0.098629 0.216779,0.098629 0.120204,0 0.219861,-0.078081 0.100684,-0.078081 0.149999,-0.2311622 z M 98.704992,7.3520384 99.0204,5.845888 h 0.309244 L 99.01526,7.3520384 Z m 1.584228,-0.3328736 h -0.596908 l -0.180821,0.3328736 h -0.31849 L 100.0447,5.845888 h 0.34418 l 0.24452,1.5061504 h -0.29384 z m -0.038,-0.2506826 -0.0873,-0.6061588 -0.363693,0.6061588 z m 1.08286,0.5835562 0.31541,-1.5061504 h 0.40582 q 0.16952,0 0.21678,0.00514 0.0935,0.00925 0.16644,0.038013 0.074,0.028767 0.13356,0.081164 0.0606,0.051369 0.10376,0.124314 0.0442,0.072945 0.0678,0.1684915 0.0236,0.09452 0.0236,0.2075324 0,0.2434908 -0.0935,0.4325302 -0.0925,0.1880119 -0.23322,0.2989698 -0.10787,0.086301 -0.27842,0.1273961 -0.0966,0.022602 -0.29692,0.022602 z m 0.36062,-0.2424635 h 0.15719 q 0.17054,0 0.24657,-0.020548 0.077,-0.021575 0.14075,-0.079109 0.0914,-0.083218 0.15411,-0.2219158 0.0627,-0.1386973 0.0627,-0.3267092 0,-0.1602725 -0.0524,-0.2404088 -0.0514,-0.081164 -0.12739,-0.1078757 -0.0534,-0.018493 -0.19007,-0.018493 h -0.17979 z m 1.15375,0.2424635 0.31438,-1.5061504 h 1.11677 l -0.0524,0.25171 h -0.8065 l -0.0719,0.3421201 h 0.77979 l -0.0524,0.25171 h -0.77979 l -0.0945,0.4089003 h 0.87636 l -0.0534,0.25171 z m 3.07908,-0.5424607 0.31233,0.04726 q -0.0914,0.2537648 -0.27431,0.3883526 -0.18288,0.1335604 -0.42842,0.1335604 -0.27637,0 -0.43253,-0.1664368 -0.15514,-0.1664368 -0.15514,-0.4828723 0,-0.2568469 0.10377,-0.4695161 0.10479,-0.2136967 0.28972,-0.3267093 0.18493,-0.1130127 0.40274,-0.1130127 0.24452,0 0.39554,0.1315057 0.15103,0.1304782 0.17774,0.3565035 l -0.29692,0.028767 q -0.0247,-0.1315057 -0.0955,-0.1900668 -0.0699,-0.059589 -0.18699,-0.059589 -0.12842,0 -0.24041,0.078081 -0.11095,0.078082 -0.17773,0.2445183 -0.0668,0.1654094 -0.0668,0.3308188 0,0.1808202 0.0863,0.2794495 0.0873,0.098629 0.21678,0.098629 0.1202,0 0.21986,-0.078081 0.10068,-0.078081 0.14999,-0.2311622 z m 0.52603,-0.048287 q 0,-0.1335604 0.0401,-0.2815043 0.0524,-0.1982858 0.15924,-0.3441748 0.10788,-0.1458891 0.27123,-0.2301349 0.16336,-0.085273 0.37192,-0.085273 0.27944,0 0.45102,0.1736286 0.1726,0.1736285 0.1726,0.4602696 0,0.238354 -0.11199,0.4612971 -0.11198,0.2229431 -0.3041,0.3431475 -0.19212,0.1202044 -0.43459,0.1202044 -0.21061,0 -0.35342,-0.095547 -0.14281,-0.095547 -0.20239,-0.2362992 -0.0596,-0.1417795 -0.0596,-0.2856137 z m 0.30616,-0.00616 q 0,0.1551356 0.0945,0.2599291 0.0945,0.1047936 0.24863,0.1047936 0.12534,0 0.2404,-0.082191 0.1161,-0.083218 0.1911,-0.2506826 0.076,-0.1684916 0.076,-0.3277367 0,-0.1777381 -0.0955,-0.2784221 -0.0956,-0.1017114 -0.24349,-0.1017114 -0.22705,0 -0.36986,0.2116419 -0.14178,0.2116419 -0.14178,0.4643792 z m 2.09895,0.5969123 h -0.29383 l -0.0545,-1.2585499 -0.23938,1.2585499 h -0.27945 l 0.31438,-1.5061504 h 0.44177 l 0.0462,1.0551272 0.51369,-1.0551272 h 0.44691 l -0.3154,1.5061504 h -0.28254 l 0.29692,-1.2493034 z m 0.88458,0 0.31541,-1.5061504 h 0.51472 q 0.16747,0 0.23425,0.010274 0.11095,0.015411 0.18801,0.061643 0.077,0.046232 0.11712,0.1232865 0.0401,0.077054 0.0401,0.1705464 0,0.1253413 -0.0699,0.2178061 -0.0699,0.091438 -0.21576,0.1386974 0.1161,0.031849 0.18082,0.11404 0.0658,0.081164 0.0658,0.1839024 0,0.1356152 -0.0771,0.2578743 -0.077,0.1212318 -0.21267,0.1746559 -0.13561,0.053424 -0.37088,0.053424 z m 0.49726,-0.8979369 h 0.2363 q 0.15924,0 0.2291,-0.022603 0.0699,-0.022602 0.1048,-0.073972 0.0349,-0.051369 0.0349,-0.1099305 0,-0.057534 -0.0329,-0.09452 -0.0329,-0.036986 -0.0935,-0.049315 -0.0339,-0.00616 -0.16335,-0.00616 h -0.24041 z m -0.13664,0.6554734 h 0.29897 q 0.18801,0 0.25171,-0.02363 0.0647,-0.024657 0.10273,-0.080136 0.039,-0.055479 0.039,-0.1171222 0,-0.074999 -0.0555,-0.1232865 -0.0555,-0.049315 -0.18493,-0.049315 h -0.36986 z m 2.14724,-0.09041 h -0.59692 l -0.18082,0.3328736 h -0.31849 l 0.85171,-1.5061504 h 0.34417 l 0.24452,1.5061504 h -0.29383 z m -0.038,-0.2506826 -0.0873,-0.6061588 -0.36369,0.6061588 z m 1.07054,0.5835562 h -0.31027 l 0.26301,-1.2544404 h -0.44178 l 0.0524,-0.25171 h 1.18663 l -0.0524,0.25171 h -0.43562 z m 0.62979,0 0.31438,-1.5061504 h 1.11677 l -0.0524,0.25171 h -0.8065 l -0.0719,0.3421201 h 0.77978 l -0.0524,0.25171 h -0.77979 l -0.0945,0.4089003 h 0.87636 l -0.0534,0.25171 z"
         id="text202"
         transform="scale(1.0370744,0.96425097)"
         aria-label="AGÊNCIA DE COMBATE" /></g></g></svg>
