<?xml version="1.0" encoding="UTF-8" standalone="no"?>
<!-- Created with Inkscape (http://www.inkscape.org/) -->

<svg
   width="499.99969"
   height="53.68689"
   viewBox="0 0 132.29152 14.204663"
   version="1.1"
   id="svg1"
   xml:space="preserve"
   sodipodi:docname="logo_land.svg"
   inkscape:version="1.4.3 (fcd0343856, 2026-01-01)"
   xmlns:inkscape="http://www.inkscape.org/namespaces/inkscape"
   xmlns:sodipodi="http://sodipodi.sourceforge.net/DTD/sodipodi-0.dtd"
   xmlns:xlink="http://www.w3.org/1999/xlink"
   xmlns="http://www.w3.org/2000/svg"
   xmlns:svg="http://www.w3.org/2000/svg"><sodipodi:namedview
     id="namedview1"
     pagecolor="#505050"
     bordercolor="#eeeeee"
     borderopacity="1"
     inkscape:showpageshadow="0"
     inkscape:pageopacity="0"
     inkscape:pagecheckerboard="0"
     inkscape:deskcolor="#505050"
     showgrid="false"
     inkscape:zoom="2.4819463"
     inkscape:cx="302.38366"
     inkscape:cy="59.832076"
     inkscape:window-width="1920"
     inkscape:window-height="1043"
     inkscape:window-x="0"
     inkscape:window-y="0"
     inkscape:window-maximized="1"
     inkscape:current-layer="svg1" /><defs
     id="defs1"><linearGradient
       id="linearGradient401"><stop
         style="stop-color:#d40000;stop-opacity:1;"
         offset="0"
         id="stop400" /><stop
         style="stop-color:#fff317;stop-opacity:1;"
         offset="1"
         id="stop401" /></linearGradient><radialGradient
       xlink:href="#linearGradient401"
       id="radialGradient17"
       gradientUnits="userSpaceOnUse"
       gradientTransform="matrix(1.0871691,0,0,1.007446,53.477285,13.232109)"
       cx="63.990456"
       cy="164.92706"
       fx="63.990456"
       fy="164.92706"
       r="3.9350705" /></defs><g
     id="g17"
     transform="translate(208.48884,152.18274)"><path
       d="m -117.82842,-139.05547 h 0.50997 q -0.23942,0.48603 -0.73502,0.76137 -0.56742,0.31602 -1.38385,0.31602 -0.79009,0 -1.3647,-0.26815 -0.5746,-0.26575 -0.85472,-0.78529 -0.28012,-0.52194 -0.28012,-1.13486 0,-0.67277 0.31843,-1.25216 0.31843,-0.58179 0.87148,-0.8715 0.55307,-0.29209 1.26414,-0.29209 0.60334,0 1.07261,0.23463 0.46926,0.23464 0.71586,0.66799 0.249,0.43096 0.249,0.94332 0,0.61051 -0.37589,1.10373 -0.47166,0.62248 -1.20908,0.62248 -0.19871,0 -0.29927,-0.0694 -0.10051,-0.0694 -0.13408,-0.20351 -0.28251,0.27295 -0.65122,0.27295 -0.39744,0 -0.6608,-0.27295 -0.26097,-0.27534 -0.26097,-0.73023 0,-0.56264 0.31604,-1.02711 0.38306,-0.56503 0.98162,-0.56503 0.42617,0 0.62967,0.32561 l 0.0599,-0.26576 h 0.63208 l -0.36152,1.71664 q -0.0335,0.16281 -0.0335,0.21069 0,0.0599 0.0263,0.091 0.0288,0.0288 0.067,0.0288 0.1149,0 0.29688,-0.13886 0.24421,-0.18196 0.39504,-0.48842 0.15084,-0.30646 0.15084,-0.63447 0,-0.58897 -0.42617,-0.98401 -0.42617,-0.39745 -1.18991,-0.39745 -0.64884,0 -1.10134,0.26576 -0.45011,0.26336 -0.67995,0.7446 -0.22745,0.47884 -0.22745,0.99838 0,0.50517 0.25379,0.91938 0.25617,0.4142 0.71586,0.60333 0.46208,0.19154 1.05585,0.19154 0.57221,0 0.98401,-0.1604 0.41181,-0.15803 0.6632,-0.47646 z m -2.58813,-0.98402 q 0,0.30407 0.12209,0.44773 0.1245,0.14365 0.30646,0.14365 0.13647,0 0.25617,-0.0671 0.091,-0.0478 0.17957,-0.15083 0.12689,-0.14606 0.21787,-0.42618 0.0933,-0.28012 0.0933,-0.52193 0,-0.27054 -0.1269,-0.4142 -0.1245,-0.14604 -0.31603,-0.14604 -0.2059,0 -0.38067,0.16041 -0.17479,0.15802 -0.26337,0.45251 -0.0886,0.29448 -0.0886,0.52193 z m 3.10489,-1.51313 h 0.3735 v -0.19154 q 0,-0.32082 0.0671,-0.47884 0.0694,-0.15801 0.25139,-0.25617 0.18435,-0.10052 0.46448,-0.10052 0.2873,0 0.56263,0.0861 l -0.091,0.46926 q -0.16042,-0.0383 -0.30885,-0.0383 -0.14605,0 -0.21069,0.0694 -0.0622,0.067 -0.0622,0.26097 v 0.17957 h 0.50279 v 0.52911 h -0.50279 v 2.01353 h -0.67278 v -2.01353 h -0.37348 z m 2.36271,0.77573 -0.61053,-0.11019 q 0.103,-0.3687 0.35434,-0.54587 0.25139,-0.17717 0.747,-0.17717 0.4501,0 0.67037,0.10771 0.22027,0.10535 0.30885,0.27054 0.091,0.16281 0.091,0.60094 l -0.007,0.7853 q 0,0.33519 0.0311,0.4956 0.0335,0.15802 0.12208,0.33998 h -0.66559 q -0.0264,-0.0671 -0.0646,-0.19872 -0.0167,-0.0599 -0.0239,-0.079 -0.17238,0.16759 -0.36871,0.25139 -0.19632,0.0838 -0.41898,0.0838 -0.39265,0 -0.62011,-0.2131 -0.22505,-0.21308 -0.22505,-0.53869 0,-0.21548 0.10299,-0.38308 0.103,-0.16998 0.28731,-0.25856 0.18675,-0.091 0.5363,-0.15803 0.47166,-0.0886 0.65362,-0.16519 v -0.0671 q 0,-0.19392 -0.0958,-0.27532 -0.0958,-0.0838 -0.36152,-0.0838 -0.17957,0 -0.28012,0.0719 -0.10052,0.0694 -0.16281,0.2466 z m 0.90021,0.54587 q -0.12928,0.0431 -0.4094,0.103 -0.28012,0.0599 -0.36631,0.11737 -0.13169,0.0933 -0.13169,0.23703 0,0.14125 0.10535,0.24421 0.10535,0.103 0.26815,0.103 0.18196,0 0.34716,-0.11973 0.12208,-0.091 0.16042,-0.22266 0.0263,-0.0861 0.0263,-0.32801 z m 1.23264,1.22104 v -3.50989 h 0.67277 v 1.86268 l 0.78768,-0.89543 h 0.82841 l -0.86911,0.92896 0.93135,1.61368 h -0.72544 l -0.63926,-1.14204 -0.31363,0.32802 v 0.81402 z m 4.15594,-0.80924 0.67039,0.11254 q -0.1293,0.3687 -0.40942,0.56263 -0.27773,0.19154 -0.69671,0.19154 -0.66319,0 -0.98162,-0.43336 -0.25139,-0.34715 -0.25139,-0.87627 0,-0.63208 0.3304,-0.98881 0.33039,-0.35913 0.83557,-0.35913 0.56743,0 0.89544,0.37589 0.328,0.3735 0.31363,1.14682 h -1.68552 q 0.007,0.29928 0.16281,0.46688 0.15562,0.1652 0.38787,0.1652 0.15801,0 0.26575,-0.0861 0.10771,-0.0861 0.1628,-0.27773 z m 0.0383,-0.67994 q -0.007,-0.2921 -0.15084,-0.44294 -0.14365,-0.15322 -0.34955,-0.15322 -0.22027,0 -0.36392,0.1604 -0.14365,0.16042 -0.14126,0.43576 z m 3.46163,1.48918 h -0.67277 v -1.29766 q 0,-0.41179 -0.0431,-0.53151 -0.0431,-0.12208 -0.14126,-0.18913 -0.0958,-0.0671 -0.23224,-0.0671 -0.17477,0 -0.31363,0.0958 -0.13887,0.0958 -0.19154,0.25378 -0.0503,0.15802 -0.0503,0.58419 v 1.15159 h -0.67277 v -2.54264 h 0.62488 v 0.3735 q 0.33279,-0.43096 0.83797,-0.43096 0.22266,0 0.40701,0.0814 0.18436,0.0789 0.27773,0.20352 0.0958,0.12449 0.13168,0.28251 0.0383,0.15801 0.0383,0.45251 z m 2.08736,-0.80924 0.67038,0.11254 q -0.12929,0.3687 -0.40941,0.56263 -0.27773,0.19154 -0.69671,0.19154 -0.6632,0 -0.98163,-0.43336 -0.25139,-0.34715 -0.25139,-0.87627 0,-0.63208 0.3304,-0.98881 0.3304,-0.35913 0.83558,-0.35913 0.56742,0 0.89543,0.37589 0.328,0.3735 0.31364,1.14682 h -1.68552 q 0.007,0.29928 0.16281,0.46688 0.15562,0.1652 0.38786,0.1652 0.15801,0 0.26575,-0.0861 0.10775,-0.0861 0.16281,-0.27773 z m 0.0383,-0.67994 q -0.007,-0.2921 -0.15084,-0.44294 -0.14365,-0.15322 -0.34955,-0.15322 -0.22027,0 -0.36392,0.1604 -0.14365,0.16042 -0.14126,0.43576 z m 1.62288,1.48918 -0.80445,-2.54264 h 0.65362 l 0.47644,1.66636 0.43814,-1.66636 h 0.648831 l 0.423774,1.66636 0.486023,-1.66636 h 0.663194 l -0.816422,2.54264 h -0.646437 l -0.438133,-1.63524 -0.43096,1.63524 z m 3.035467,-0.72544 0.675164,-0.103 q 0.04309,0.19634 0.174777,0.29928 0.131683,0.10052 0.368707,0.10052 0.260968,0 0.39265,-0.0958 0.08859,-0.0671 0.08859,-0.17956 0,-0.0766 -0.04788,-0.1269 -0.05027,-0.0478 -0.225055,-0.0886 -0.814029,-0.17957 -1.031901,-0.328 -0.301669,-0.20591 -0.301669,-0.57222 0,-0.3304 0.260967,-0.55545 0.260968,-0.22506 0.80924,-0.22506 0.521936,0 0.775721,0.16999 0.253787,0.16998 0.349554,0.50278 l -0.634463,0.11737 q -0.0407,-0.14844 -0.155622,-0.22745 -0.112527,-0.079 -0.323218,-0.079 -0.265757,0 -0.380679,0.0743 -0.07661,0.0527 -0.07661,0.13647 0,0.0719 0.06703,0.12208 0.09098,0.067 0.627281,0.18915 0.538695,0.12208 0.751779,0.29927 0.21069,0.17956 0.21069,0.50039 0,0.34955 -0.292092,0.60094 -0.292093,0.25139 -0.864308,0.25139 -0.519541,0 -0.823605,-0.21069 -0.301669,-0.21068 -0.395043,-0.57221 z m 5.113633,-1.06542 -0.663194,0.11973 q -0.03351,-0.19872 -0.153229,-0.29928 -0.117323,-0.10052 -0.306457,-0.10052 -0.251392,0 -0.402226,0.17477 -0.148441,0.17238 -0.148441,0.5794 0,0.4525 0.150835,0.63925 0.153229,0.18675 0.409409,0.18675 0.191536,0 0.31364,-0.1077 0.122107,-0.11019 0.172382,-0.3759 l 0.660799,0.11254 q -0.102959,0.45491 -0.395042,0.68714 -0.292093,0.23224 -0.782906,0.23224 -0.557848,0 -0.890642,-0.35195 -0.330399,-0.35194 -0.330399,-0.97444 0,-0.62967 0.332794,-0.97923 0.332794,-0.35194 0.900219,-0.35194 0.464477,0 0.737414,0.20111 0.275334,0.19871 0.395044,0.60813 z m 0.28692,0.48363 q 0,-0.33518 0.1652,-0.64883 0.165201,-0.31364 0.46687,-0.47884 0.304064,-0.1652 0.677559,-0.1652 0.577003,0 0.94571,0.37589 0.368707,0.3735 0.368707,0.94571 0,0.577 -0.373496,0.95768 -0.371101,0.37828 -0.936133,0.37828 -0.349553,0 -0.667981,-0.15801 -0.316035,-0.15802 -0.481236,-0.46208 -0.1652,-0.30646 -0.1652,-0.7446 z m 0.689531,0.0359 q 0,0.37828 0.179565,0.57939 0.179566,0.20112 0.442927,0.20112 0.263362,0 0.440534,-0.20112 0.179566,-0.20111 0.179566,-0.58418 0,-0.3735 -0.179566,-0.57462 -0.177172,-0.2011 -0.440534,-0.2011 -0.263361,0 -0.442927,0.2011 -0.179565,0.20112 -0.179565,0.57941 z m 2.34354,-1.27132 h 0.620097 v 0.34716 q 0.332795,-0.40462 0.792481,-0.40462 0.244209,0 0.423775,0.10051 0.179565,0.10052 0.294487,0.30407 0.167594,-0.20351 0.361525,-0.30407 0.19393,-0.10051 0.414196,-0.10051 0.280121,0 0.474053,0.11489 0.193929,0.11254 0.289698,0.3328 0.06942,0.16281 0.06942,0.52673 v 1.62565 h -0.67277 v -1.45328 q 0,-0.37828 -0.06942,-0.48841 -0.09338,-0.14365 -0.287305,-0.14365 -0.141259,0 -0.265756,0.0861 -0.1245,0.0863 -0.179565,0.25379 -0.05505,0.16519 -0.05505,0.52433 v 1.22108 h -0.672771 v -1.39342 q 0,-0.37111 -0.03591,-0.47884 -0.03591,-0.10771 -0.112527,-0.16042 -0.07422,-0.0527 -0.203508,-0.0527 -0.155623,0 -0.280121,0.0838 -0.124502,0.0838 -0.179566,0.24181 -0.05266,0.15803 -0.05266,0.52434 v 1.2354 h -0.67277 z m 4.31397,2.54264 v -3.5099 h 0.672769 v 1.26413 q 0.311248,-0.35433 0.737415,-0.35433 0.464475,0 0.768539,0.33758 0.304064,0.33519 0.304064,0.96486 0,0.65123 -0.311247,1.00317 -0.308852,0.35195 -0.75178,0.35195 -0.217872,0 -0.430955,-0.10771 -0.210691,-0.11018 -0.363919,-0.32321 v 0.3735 z m 0.667981,-1.32639 q 0,0.39504 0.124501,0.58419 0.174778,0.26815 0.464477,0.26815 0.22266,0 0.378283,-0.18915 0.158018,-0.19153 0.158018,-0.60095 0,-0.43574 -0.158018,-0.62727 -0.158017,-0.19393 -0.404619,-0.19393 -0.241816,0 -0.402226,0.18914 -0.160413,0.18674 -0.160413,0.56982 z m 2.791256,-0.44054 -0.610521,-0.11018 q 0.102958,-0.3687 0.354342,-0.54588 0.251391,-0.17717 0.746991,-0.17717 0.450109,0 0.670376,0.1077 0.220267,0.10535 0.308852,0.27054 0.09099,0.16281 0.09099,0.60095 l -0.0072,0.78529 q 0,0.33519 0.03112,0.49561 0.03351,0.15801 0.122107,0.33997 h -0.665587 q -0.02634,-0.067 -0.06464,-0.19872 -0.01676,-0.0599 -0.02394,-0.0789 -0.172382,0.1676 -0.368707,0.25139 -0.196325,0.0838 -0.418985,0.0838 -0.39265,0 -0.6201,-0.21308 -0.225053,-0.21308 -0.225053,-0.53869 0,-0.21549 0.102958,-0.38308 0.102959,-0.16999 0.287305,-0.25857 0.186747,-0.091 0.536301,-0.15802 0.471658,-0.0886 0.653618,-0.16521 v -0.067 q 0,-0.19393 -0.09577,-0.27533 -0.09577,-0.0838 -0.361523,-0.0838 -0.179566,0 -0.280121,0.0719 -0.100566,0.0694 -0.162806,0.2466 z m 0.900221,0.54588 q -0.12929,0.0431 -0.409409,0.10299 -0.280121,0.0599 -0.366314,0.11738 -0.131683,0.0933 -0.131683,0.23702 0,0.14126 0.105351,0.24421 0.10535,0.10299 0.26815,0.10299 0.18196,0 0.347159,-0.11973 0.122107,-0.091 0.160412,-0.22266 0.02634,-0.0861 0.02634,-0.328 z m 2.422546,-1.32159 v 0.53629 h -0.459685 v 1.02473 q 0,0.31124 0.01202,0.36392 0.01433,0.0503 0.05985,0.0838 0.04788,0.0335 0.114931,0.0335 0.09339,0 0.270548,-0.0647 l 0.05748,0.52194 q -0.234623,0.10052 -0.531503,0.10052 -0.18196,0 -0.328006,-0.0599 -0.146047,-0.0622 -0.215478,-0.15802 -0.06703,-0.0982 -0.09338,-0.26337 -0.02154,-0.11737 -0.02154,-0.47405 v -1.10851 h -0.308852 v -0.53629 h 0.308852 v -0.50519 l 0.675165,-0.39265 v 0.89784 z"
       id="path9"
       style="font-weight:bold;font-size:3.11328px;line-height:0.403575px;font-family:Arial;-inkscape-font-specification:'Arial Bold';letter-spacing:-0.0428076px;fill:#fff317;stroke-width:0.463364"
       aria-label="@fakenewscombat" /><g
       id="g16"
       transform="matrix(1.2707345,0,0,1.2707345,-206.13035,-92.462514)"><g
         id="g15"
         transform="translate(-1.8562178,-50.115982)"><g
           id="g14"
           transform="matrix(0.79622376,0,0,0.79622376,-90.242346,-136.5112)"
           style="stroke-width:0.999719;stroke-dasharray:none"><path
             style="font-size:10.9035px;font-family:'Arial Black';-inkscape-font-specification:'Arial Black, ';fill:#ffffff;stroke-width:0.999719;stroke-dasharray:none"
             d="m 113.33792,175.49908 h 5.96285 v 1.67706 h -3.54044 v 1.36293 h 3.02402 v 1.5759 h -3.02402 v 3.18906 h -2.42241 z m 11.0366,6.51655 h -2.74717 l -0.378,1.2884 h -2.465 l 2.93351,-7.80495 h 2.63004 l 2.93351,7.80495 h -2.52356 z m -0.50578,-1.6877 -0.86248,-2.80573 -0.85716,2.80573 z m 4.1953,-4.82885 h 2.41176 v 2.94949 l 2.52888,-2.94949 h 3.20504 l -2.84301,2.94416 2.97078,4.86079 h -2.97078 l -1.6451,-3.21036 -1.24581,1.30438 v 1.90598 h -2.41176 z m 9.06673,0 h 6.4633 v 1.66641 h -4.04622 v 1.24048 h 3.7534 v 1.59187 h -3.7534 v 1.53863 h 4.16335 v 1.76756 h -6.58043 z m 11.53173,0 h 2.25204 l 2.93883,4.31775 v -4.31775 h 2.27334 v 7.80495 h -2.27334 l -2.92286,-4.2858 v 4.2858 h -2.26801 z m 9.0614,0 h 6.4633 v 1.66641 h -4.04622 v 1.24048 h 3.7534 v 1.59187 h -3.7534 v 1.53863 h 4.16335 v 1.76756 h -6.58043 z m 7.07556,0 h 2.28931 l 0.82522,4.36034 1.20322,-4.36034 h 2.28398 l 1.20854,4.36034 0.82522,-4.36034 h 2.27866 l -1.71964,7.80495 h -2.36385 l -1.36826,-4.91403 -1.36294,4.91403 h -2.36384 z m 11.28683,5.22282 2.29463,-0.14374 q 0.0745,0.55901 0.30347,0.85183 0.37268,0.47384 1.06479,0.47384 0.51643,0 0.79328,-0.23958 0.28217,-0.24491 0.28217,-0.56434 0,-0.30347 -0.2662,-0.54305 -0.2662,-0.23958 -1.23517,-0.45254 -1.58654,-0.3567 -2.26268,-0.94766 -0.68147,-0.59097 -0.68147,-1.50669 0,-0.60161 0.34606,-1.13401 0.35138,-0.53772 1.04882,-0.84118 0.70276,-0.30879 1.92195,-0.30879 1.49604,0 2.27866,0.55901 0.78795,0.5537 0.93702,1.76756 l -2.27333,0.1331 q -0.0905,-0.52707 -0.38333,-0.76665 -0.28749,-0.23958 -0.7986,-0.23958 -0.42059,0 -0.63355,0.18102 -0.21296,0.17569 -0.21296,0.43124 0,0.18634 0.17569,0.33541 0.17037,0.15439 0.80925,0.28749 1.58122,0.34074 2.26269,0.69212 0.68679,0.34606 0.99558,0.86248 0.31411,0.51643 0.31411,1.15531 0,0.75068 -0.41527,1.38423 -0.41527,0.63355 -1.16062,0.96364 -0.74536,0.32476 -1.87936,0.32476 -1.99117,0 -2.75782,-0.76665 -0.76666,-0.76665 -0.86781,-1.94858 z"
             id="path10"
             aria-label="FAKE NEWS " /><path
             id="path11"
             style="fill:#e51010;fill-opacity:1;stroke:none;stroke-width:0.999719;stroke-dasharray:none"
             d="m 127.14545,183.23295 h -4.09346 -4.09346 l 2.04674,-5.50263 0.81519,-2.19164 2.45941,-0.01 0.81886,2.20149 z" /><path
             id="path12"
             style="fill:url(#radialGradient17);stroke:none;stroke-width:0.999719;stroke-dasharray:none"
             d="m 127.16208,183.23922 h -4.11634 -4.11635 l 2.05817,-5.50264 0.81974,-2.19164 2.47318,-0.01 0.82343,2.20149 z" /><path
             style="font-size:7.42207px;font-family:'Andale Mono';-inkscape-font-specification:'Andale Mono';stroke:#000000;stroke-width:0.999719;stroke-dasharray:none"
             d="m 123.42416,178.31578 -0.17033,1.9135 h -0.31167 l -0.17033,-1.9135 v -1.66344 h 0.65233 z m -0.31167,2.6202 q 0.19208,0 0.32254,0.13046 0.13047,0.13047 0.13047,0.32254 0,0.19208 -0.13409,0.33342 -0.13047,0.14133 -0.31892,0.14133 -0.18483,0 -0.31529,-0.13771 -0.13047,-0.14134 -0.13047,-0.33704 0,-0.1957 0.12684,-0.32254 0.13047,-0.13046 0.31892,-0.13046 z"
             id="path13"
             aria-label="!" /></g></g><path
         style="font-size:9.38183px;line-height:1.21617px;font-family:'Arial Black';-inkscape-font-specification:'Arial Black, ';letter-spacing:-0.130561px;fill:#ffffff;stroke:#ffffff;stroke-width:0"
         d="m 57.931143,-45.762561 1.818645,0.549717 q -0.183239,0.765022 -0.577202,1.278091 -0.393964,0.513069 -0.980328,0.774184 -0.581784,0.261116 -1.484235,0.261116 -1.094852,0 -1.79116,-0.316087 -0.691727,-0.320668 -1.195634,-1.122338 -0.503906,-0.80167 -0.503906,-2.052276 0,-1.667473 0.884127,-2.560763 0.888709,-0.89787 2.510373,-0.89787 1.268929,0 1.992722,0.513068 0.728375,0.513069 1.08111,1.575855 l -1.832389,0.407706 q -0.0962,-0.306925 -0.201563,-0.448935 -0.174077,-0.238211 -0.42603,-0.366478 -0.251954,-0.128267 -0.56346,-0.128267 -0.705469,0 -1.081109,0.568041 -0.28402,0.421449 -0.28402,1.3239 0,1.117757 0.338992,1.534626 0.338992,0.412287 0.952842,0.412287 0.595526,0 0.89787,-0.334411 0.306925,-0.334411 0.444355,-0.971166 z m 2.434783,-0.609269 q 0,-1.644569 0.916194,-2.560763 0.916195,-0.916194 2.551602,-0.916194 1.676635,0 2.583668,0.902451 0.907032,0.89787 0.907032,2.519534 0,1.17731 -0.398544,1.933171 -0.393964,0.751279 -1.145243,1.172728 -0.746699,0.416869 -1.864456,0.416869 -1.136081,0 -1.882779,-0.361897 -0.742118,-0.361897 -1.204796,-1.145243 -0.462678,-0.783346 -0.462678,-1.960656 z m 2.07518,0.0092 q 0,1.016976 0.37564,1.46133 0.380221,0.444354 1.030719,0.444354 0.668821,0 1.035299,-0.435192 0.366478,-0.435192 0.366478,-1.562111 0,-0.948262 -0.384802,-1.383454 -0.38022,-0.439773 -1.035299,-0.439773 -0.627593,0 -1.007814,0.444354 -0.380221,0.444354 -0.380221,1.470492 z m 5.847608,-3.371595 h 2.730259 l 1.053623,4.086227 1.049043,-4.086227 h 2.721097 v 6.715704 h -1.69496 v -5.121526 l -1.314738,5.121526 h -1.534626 l -1.310158,-5.121526 v 5.121526 h -1.69954 z m 8.751943,0 h 3.884664 q 0.971166,0 1.488816,0.481002 0.522231,0.481002 0.522231,1.191053 0,0.595526 -0.371059,1.021556 -0.247372,0.284021 -0.723793,0.448936 0.723793,0.174076 1.062785,0.600107 0.343573,0.421449 0.343573,1.062785 0,0.522231 -0.242792,0.939099 -0.242791,0.416869 -0.664241,0.65966 -0.261115,0.151172 -0.787927,0.219887 -0.700888,0.09162 -0.929937,0.09162 h -3.58232 z m 2.093504,2.634059 h 0.902452 q 0.485583,0 0.673402,-0.164915 0.192401,-0.169496 0.192401,-0.485583 0,-0.293183 -0.192401,-0.458098 -0.187819,-0.164915 -0.659659,-0.164915 h -0.916195 z m 0,2.638639 h 1.058205 q 0.535973,0 0.75586,-0.187819 0.219887,-0.192401 0.219887,-0.513069 0,-0.297763 -0.219887,-0.476421 -0.215306,-0.183239 -0.760441,-0.183239 h -1.053624 z m 9.040543,0.334411 h -2.363781 l -0.325249,1.108595 h -2.12099 l 2.524116,-6.715704 h 2.263 l 2.524115,6.715704 h -2.171381 z m -0.435192,-1.452168 -0.742117,-2.414172 -0.737537,2.414172 z m 2.352323,-4.154941 h 6.307999 v 1.658312 h -2.116409 v 5.057392 h -2.075181 v -5.057392 h -2.116409 z"
         id="path15"
         transform="scale(1.0606889,0.9427835)"
         aria-label="COMBAT" /></g></g></svg>
