<?xml version="1.0" encoding="UTF-8" standalone="no"?>
<!-- Created with Inkscape (http://www.inkscape.org/) -->

<svg
   width="500"
   height="80"
   viewBox="0 0 132.29163 21.166681"
   version="1.1"
   id="svg1"
   xml:space="preserve"
   sodipodi:docname="logo_land_small.svg"
   inkscape:version="1.4.3 (fcd0343856, 2026-01-01)"
   inkscape:export-filename="logo_land_small.svg"
   inkscape:export-xdpi="96"
   inkscape:export-ydpi="96"
   xmlns:inkscape="http://www.inkscape.org/namespaces/inkscape"
   xmlns:sodipodi="http://sodipodi.sourceforge.net/DTD/sodipodi-0.dtd"
   xmlns:xlink="http://www.w3.org/1999/xlink"
   xmlns="http://www.w3.org/2000/svg"
   xmlns:svg="http://www.w3.org/2000/svg"><sodipodi:namedview
     id="namedview1"
     pagecolor="#ffffff"
     bordercolor="#eeeeee"
     borderopacity="1"
     inkscape:showpageshadow="0"
     inkscape:pageopacity="0"
     inkscape:pagecheckerboard="0"
     inkscape:deskcolor="#505050"
     inkscape:zoom="1.1765931"
     inkscape:cx="302.99346"
     inkscape:cy="22.522656"
     inkscape:window-width="1920"
     inkscape:window-height="1043"
     inkscape:window-x="0"
     inkscape:window-y="0"
     inkscape:window-maximized="1"
     inkscape:current-layer="layer1" /><defs
     id="defs1"><linearGradient
       id="swatch413"><stop
         style="stop-color:#000000;stop-opacity:1;"
         offset="0"
         id="stop413" /></linearGradient><linearGradient
       id="linearGradient401"><stop
         style="stop-color:#d40000;stop-opacity:1;"
         offset="0"
         id="stop400" /><stop
         style="stop-color:#fff317;stop-opacity:1;"
         offset="1"
         id="stop401" /></linearGradient><radialGradient
       xlink:href="#linearGradient401"
       id="radialGradient456"
       gradientUnits="userSpaceOnUse"
       gradientTransform="matrix(1.0871691,0,0,1.007446,53.477285,13.232109)"
       cx="63.990456"
       cy="164.92706"
       fx="63.990456"
       fy="164.92706"
       r="3.9350705" /><radialGradient
       xlink:href="#linearGradient401"
       id="radialGradient17-7"
       gradientUnits="userSpaceOnUse"
       gradientTransform="matrix(1.0999857,0,0,1.0193228,-60.566601,-164.04527)"
       cx="63.990456"
       cy="164.92706"
       fx="63.990456"
       fy="164.92706"
       r="3.9350705" /><radialGradient
       inkscape:collect="always"
       xlink:href="#linearGradient401"
       id="radialGradient9"
       gradientUnits="userSpaceOnUse"
       gradientTransform="matrix(0.86562987,0,0,0.80215244,-43.839629,-105.73696)"
       cx="63.990456"
       cy="164.92706"
       fx="63.990456"
       fy="164.92706"
       r="3.9350705" /></defs><g
     inkscape:groupmode="layer"
     id="layer1"
     inkscape:label="slogan"><text
       xml:space="preserve"
       style="font-style:normal;font-variant:normal;font-weight:bold;font-stretch:normal;font-size:3.52777px;line-height:0.457306px;font-family:'Noto Serif Telugu';-inkscape-font-specification:'Noto Serif Telugu Bold';letter-spacing:-0.0582083px;writing-mode:lr-tb;direction:ltr;opacity:0.250194;fill:#ffff00;stroke:#fff317;stroke-width:0"
       x="47.138882"
       y="2.3049424"
       id="text11"><tspan
         sodipodi:role="line"
         id="tspan11"
         style="stroke-width:0"
         x="47.138882"
         y="2.3049424" /></text><g
       id="g12"
       transform="matrix(2.3793595,0,0,2.3793595,-14.770978,-2.8504845)"><path
         style="font-size:10.9035px;font-family:'Arial Black';-inkscape-font-specification:'Arial Black, ';fill:#000000;fill-opacity:1;stroke-width:0.723473"
         d="m 6.2079636,3.7467592 h 4.7477624 v 1.335315 H 8.136744 v 1.085198 h 2.407797 v 1.254769 H 8.136744 v 2.539205 H 6.2079636 Z m 8.7876034,5.188632 h -2.187362 l -0.300973,1.025855 h -1.962691 l 2.33573,-6.214487 h 2.0941 l 2.335731,6.214487 h -2.009319 z m -0.402714,-1.343787 -0.686727,-2.233988 -0.682491,2.233988 z m 3.340397,-3.844845 h 1.920301 v 2.348454 l 2.013554,-2.348454 h 2.551929 l -2.263672,2.34421 2.365406,3.870277 h -2.365406 l -1.309867,-2.556165 -0.991944,1.038578 v 1.517587 H 17.93325 Z m 7.219146,0 h 5.146233 v 1.326836 h -3.221696 v 0.987699 h 2.988546 v 1.267485 h -2.988546 v 1.225094 h 3.314958 v 1.407373 h -5.239495 z m 9.181838,0 h 1.793127 l 2.339967,3.437895 v -3.437895 h 1.810087 v 6.214487 h -1.810087 l -2.327251,-3.412456 v 3.412456 h -1.805843 z m 7.214902,0 h 5.146233 v 1.326836 h -3.221697 v 0.987699 h 2.988546 v 1.267485 h -2.988546 v 1.225094 h 3.314958 v 1.407373 h -5.239494 z m 5.633729,0 h 1.822803 l 0.657059,3.471807 0.958033,-3.471807 h 1.818559 l 0.962268,3.471807 0.65706,-3.471807 h 1.814323 l -1.369218,6.214487 h -1.882154 l -1.089441,-3.912667 -1.085205,3.912667 h -1.882145 z m 8.986842,4.158534 1.827039,-0.114449 q 0.05932,0.445097 0.24163,0.678247 0.296737,0.377282 0.847811,0.377282 0.411194,0 0.631628,-0.190759 0.224671,-0.195003 0.224671,-0.449341 0,-0.24163 -0.211955,-0.432389 -0.211955,-0.190759 -0.983472,-0.360323 -1.263241,-0.284013 -1.801599,-0.75455 -0.542603,-0.470544 -0.542603,-1.199662 0,-0.479016 0.275541,-0.902926 0.279777,-0.428145 0.835096,-0.669767 0.559554,-0.245866 1.530302,-0.245866 1.191183,0 1.814323,0.445097 0.627385,0.440869 0.746078,1.407373 l -1.81008,0.105978 q -0.07206,-0.419666 -0.305216,-0.610425 -0.228906,-0.19076 -0.635864,-0.19076 -0.334884,0 -0.504448,0.144133 -0.169564,0.139888 -0.169564,0.343363 0,0.148369 0.139889,0.267062 0.135653,0.122929 0.644344,0.228906 1.259005,0.271305 1.801608,0.551083 0.546838,0.275541 0.792704,0.686727 0.250102,0.411193 0.250102,0.919885 0,0.597709 -0.330648,1.102157 -0.330648,0.504447 -0.924113,0.767273 -0.593474,0.2585808 -1.496391,0.2585808 -1.585417,0 -2.195842,-0.6104248 -0.610433,-0.610425 -0.690971,-1.551505 z"
         id="path1"
         aria-label="FAKE NEWS " /><g
         id="g10"><g
           id="g9"
           transform="matrix(1.0649028,0,0,1.0260192,1.6231958,-20.375526)"><path
             id="path2"
             style="fill:#e51010;fill-opacity:1;stroke:none;stroke-width:0.178153"
             d="m 14.816714,29.621748 h -3.25931 -3.25931 l 1.6296631,-4.381324 0.6490739,-1.745036 1.95824,-0.008 0.651996,1.752878 z" /><path
             id="path3"
             style="fill:url(#radialGradient9);stroke:none;stroke-width:0.178651"
             d="M 14.829955,29.626741 H 11.552428 8.2748921 l 1.6387638,-4.381333 0.6526961,-1.745036 1.969205,-0.008 0.655635,1.752879 z" /><g
             id="g5"
             transform="matrix(0.79622376,0,0,0.79622376,-86.419514,-116.27268)"><path
               style="font-size:7.42207px;font-family:'Andale Mono';-inkscape-font-specification:'Andale Mono';baseline-shift:baseline;display:inline;overflow:visible;vector-effect:none;enable-background:accumulate;stop-color:#000000;stop-opacity:1"
               d="m 123.42416,178.31578 -0.17033,1.9135 h -0.31167 l -0.17033,-1.9135 v -1.66344 h 0.65233 z m -0.31167,2.6202 q 0.19208,0 0.32254,0.13046 0.13047,0.13047 0.13047,0.32254 0,0.19208 -0.13409,0.33342 -0.13047,0.14133 -0.31892,0.14133 -0.18483,0 -0.31529,-0.13771 -0.13047,-0.14134 -0.13047,-0.33704 0,-0.1957 0.12684,-0.32254 0.13047,-0.13046 0.31892,-0.13046 z"
               id="path4" /><path
               style="font-size:7.42207px;font-family:'Andale Mono';-inkscape-font-specification:'Andale Mono';baseline-shift:baseline;display:inline;overflow:visible;vector-effect:none;enable-background:accumulate;stop-color:#000000;stop-opacity:1"
               d="m 122.46289,176.34375 v 1.98633 l 0.19727,2.20898 h 0.87695 l 0.19727,-2.20898 v -1.98633 z m 0.61914,0.61719 h 0.0332 v 1.32812 l -0.0176,0.19531 -0.0156,-0.18164 z m 0.0312,3.66601 c -0.19699,0 -0.39944,0.0811 -0.53906,0.22071 -0.14079,0.14079 -0.2168,0.34373 -0.2168,0.54101 0,0.19919 0.0777,0.40038 0.21289,0.54688 l 0.002,0.002 v 0.002 c 0.13712,0.14474 0.34099,0.23438 0.54101,0.23438 0.20294,0 0.40761,-0.0934 0.54492,-0.24219 0.1357,-0.14472 0.2168,-0.34443 0.2168,-0.54297 0,-0.19807 -0.0801,-0.40038 -0.2207,-0.54101 -0.14064,-0.14064 -0.34295,-0.22071 -0.54102,-0.22071 z m 0,0.61914 c 0.058,0 0.0702,0.006 0.10352,0.0391 0.0333,0.0333 0.0391,0.0455 0.0391,0.10351 0,0.0561 -0.008,0.0776 -0.0488,0.1211 l -0.002,0.002 c -0.0366,0.0397 -0.0435,0.043 -0.0918,0.043 -0.0444,0 -0.055,-0.005 -0.0879,-0.0391 -0.0387,-0.042 -0.0488,-0.0652 -0.0488,-0.12695 0,-0.0636 0.007,-0.0752 0.0352,-0.10351 0.0343,-0.0343 0.0473,-0.0391 0.10156,-0.0391 z"
               id="path5" /></g></g></g><path
         style="font-weight:bold;font-size:2.97818px;line-height:0.386061px;font-family:'Noto Serif Telugu';-inkscape-font-specification:'Noto Serif Telugu Bold';letter-spacing:-0.0491398px;fill:#da0000;fill-opacity:1;stroke:#fff317;stroke-width:0"
         d="m 43.441007,3.0575922 q -0.197617,0.0701 -0.399487,0.10579 -0.201871,0.03569 -0.40926,0.03569 -0.618845,0 -0.898268,-0.265113 -0.279029,-0.266388 -0.13784,-0.721415 0.141584,-0.4563 0.58553,-0.721414 0.444341,-0.266388 1.063187,-0.266388 0.207388,0 0.387112,0.03569 0.179723,0.03569 0.333836,0.10579 l -0.122205,0.393847 q -0.148653,-0.09305 -0.307754,-0.136381 -0.159101,-0.04334 -0.349898,-0.04334 -0.341775,0 -0.589753,0.168245 -0.247978,0.168245 -0.339731,0.463949 -0.09136,0.294428 0.05221,0.462673 0.14357,0.168245 0.485345,0.168245 0.190798,0 0.376791,-0.04334 0.185994,-0.04333 0.392388,-0.13638 z m 2.063068,-1.477243 q -0.292003,0 -0.504349,0.165696 -0.212346,0.165696 -0.305681,0.466498 -0.09294,0.299527 0.01658,0.465223 0.10952,0.165696 0.401523,0.165696 0.293661,0 0.506008,-0.165696 0.212346,-0.165696 0.305285,-0.465223 0.09333,-0.300802 -0.01619,-0.466498 -0.10952,-0.165696 -0.403181,-0.165696 z m 0.110341,-0.355609 q 0.597277,0 0.854264,0.262565 0.256987,0.262564 0.113425,0.725238 -0.143166,0.461399 -0.563093,0.723963 -0.419927,0.262564 -1.017205,0.262564 -0.595618,0 -0.854264,-0.262564 -0.256988,-0.262564 -0.113822,-0.723963 0.143562,-0.462674 0.563489,-0.725238 0.421587,-0.262565 1.017206,-0.262565 z m 1.690249,0.03441 h 0.81296 l 0.248102,1.018392 0.883408,-1.018392 h 0.811301 l -0.590461,1.902953 h -0.603914 l 0.431871,-1.391841 -0.889098,1.02604 h -0.404821 l -0.252365,-1.02604 -0.431871,1.391845 h -0.605573 z m 4.088743,0.736709 q 0.150978,0 0.244775,-0.05098 0.0938,-0.05098 0.124649,-0.1504 0.03045,-0.09814 -0.03171,-0.149127 -0.06177,-0.05226 -0.212741,-0.05226 h -0.353389 l -0.124973,0.402769 z m -0.23669,0.832304 q 0.192456,0 0.308063,-0.06245 0.117269,-0.06245 0.156423,-0.188638 0.03836,-0.123635 -0.03888,-0.184814 -0.07684,-0.06245 -0.270964,-0.06245 h -0.374958 l -0.154635,0.498362 z m 0.806335,-0.684452 q 0.191492,0.04588 0.265949,0.16952 0.07446,0.123634 0.0187,0.303351 -0.08543,0.27531 -0.369576,0.410416 -0.284151,0.135105 -0.778564,0.135105 h -1.060168 l 0.590461,-1.902953 h 0.958961 q 0.515982,0 0.709422,0.119811 0.195099,0.119811 0.113233,0.38365 -0.04311,0.138929 -0.158171,0.237072 -0.114667,0.09687 -0.290238,0.144028 z m 2.220854,0.671706 H 53.18513 l -0.265187,0.346686 H 52.27787 l 1.507946,-1.902953 h 0.761529 l 0.327024,1.902953 h -0.642074 z m -0.729952,-0.35306 h 0.678573 L 54.02899,1.7052542 Z m 1.724194,-1.203207 h 2.282928 l -0.115087,0.370904 h -0.821256 l -0.475375,1.532049 h -0.638755 l 0.475374,-1.532049 h -0.822915 z"
         id="path8"
         aria-label="COMBAT" /></g></g></svg>
