<?xml version="1.0" encoding="UTF-8" standalone="no"?>
<!-- Created with Inkscape (http://www.inkscape.org/) -->

<svg
   width="210.14062"
   height="36.078629"
   viewBox="0 0 55.599707 9.5458036"
   version="1.1"
   id="svg1"
   xml:space="preserve"
   sodipodi:docname="logo.svg"
   inkscape:version="1.4.3 (fcd0343856, 2026-01-01)"
   xmlns:inkscape="http://www.inkscape.org/namespaces/inkscape"
   xmlns:sodipodi="http://sodipodi.sourceforge.net/DTD/sodipodi-0.dtd"
   xmlns:xlink="http://www.w3.org/1999/xlink"
   xmlns="http://www.w3.org/2000/svg"
   xmlns:svg="http://www.w3.org/2000/svg"><sodipodi:namedview
     id="namedview1"
     pagecolor="#505050"
     bordercolor="#eeeeee"
     borderopacity="1"
     inkscape:showpageshadow="0"
     inkscape:pageopacity="0"
     inkscape:pagecheckerboard="0"
     inkscape:deskcolor="#505050"
     inkscape:zoom="4.7063722"
     inkscape:cx="147.14093"
     inkscape:cy="8.6053542"
     inkscape:window-width="1920"
     inkscape:window-height="1043"
     inkscape:window-x="0"
     inkscape:window-y="0"
     inkscape:window-maximized="1"
     inkscape:current-layer="layer1"
     showgrid="false" /><defs
     id="defs1"><linearGradient
       id="swatch413"><stop
         style="stop-color:#000000;stop-opacity:1;"
         offset="0"
         id="stop413" /></linearGradient><linearGradient
       id="linearGradient401"><stop
         style="stop-color:#d40000;stop-opacity:1;"
         offset="0"
         id="stop400" /><stop
         style="stop-color:#fff317;stop-opacity:1;"
         offset="1"
         id="stop401" /></linearGradient><radialGradient
       xlink:href="#linearGradient401"
       id="radialGradient456"
       gradientUnits="userSpaceOnUse"
       gradientTransform="matrix(1.0871691,0,0,1.007446,53.477285,13.232109)"
       cx="63.990456"
       cy="164.92706"
       fx="63.990456"
       fy="164.92706"
       r="3.9350705" /></defs><g
     inkscape:groupmode="layer"
     id="layer1"
     inkscape:label="slogan"><g
       id="g1"><g
         id="g7"><g
           id="g201"
           transform="matrix(0.79622376,0,0,0.79622376,-90.242346,-136.5112)"><path
             style="font-size:10.9035px;font-family:'Arial Black';-inkscape-font-specification:'Arial Black, ';fill:#ffffff;stroke-width:0.90863"
             d="m 113.33792,175.49908 h 5.96285 v 1.67706 h -3.54044 v 1.36293 h 3.02402 v 1.5759 h -3.02402 v 3.18906 h -2.42241 z m 11.0366,6.51655 h -2.74717 l -0.378,1.2884 h -2.465 l 2.93351,-7.80495 h 2.63004 l 2.93351,7.80495 h -2.52356 z m -0.50578,-1.6877 -0.86248,-2.80573 -0.85716,2.80573 z m 4.1953,-4.82885 h 2.41176 v 2.94949 l 2.52888,-2.94949 h 3.20504 l -2.84301,2.94416 2.97078,4.86079 h -2.97078 l -1.6451,-3.21036 -1.24581,1.30438 v 1.90598 h -2.41176 z m 9.06673,0 h 6.4633 v 1.66641 h -4.04622 v 1.24048 h 3.7534 v 1.59187 h -3.7534 v 1.53863 h 4.16335 v 1.76756 h -6.58043 z m 11.53173,0 h 2.25204 l 2.93883,4.31775 v -4.31775 h 2.27334 v 7.80495 h -2.27334 l -2.92286,-4.2858 v 4.2858 h -2.26801 z m 9.0614,0 h 6.4633 v 1.66641 h -4.04622 v 1.24048 h 3.7534 v 1.59187 h -3.7534 v 1.53863 h 4.16335 v 1.76756 h -6.58043 z m 7.07556,0 h 2.28931 l 0.82522,4.36034 1.20322,-4.36034 h 2.28398 l 1.20854,4.36034 0.82522,-4.36034 h 2.27866 l -1.71964,7.80495 h -2.36385 l -1.36826,-4.91403 -1.36294,4.91403 h -2.36384 z m 11.28683,5.22282 2.29463,-0.14374 q 0.0745,0.55901 0.30347,0.85183 0.37268,0.47384 1.06479,0.47384 0.51643,0 0.79328,-0.23958 0.28217,-0.24491 0.28217,-0.56434 0,-0.30347 -0.2662,-0.54305 -0.2662,-0.23958 -1.23517,-0.45254 -1.58654,-0.3567 -2.26268,-0.94766 -0.68147,-0.59097 -0.68147,-1.50669 0,-0.60161 0.34606,-1.13401 0.35138,-0.53772 1.04882,-0.84118 0.70276,-0.30879 1.92195,-0.30879 1.49604,0 2.27866,0.55901 0.78795,0.5537 0.93702,1.76756 l -2.27333,0.1331 q -0.0905,-0.52707 -0.38333,-0.76665 -0.28749,-0.23958 -0.7986,-0.23958 -0.42059,0 -0.63355,0.18102 -0.21296,0.17569 -0.21296,0.43124 0,0.18634 0.17569,0.33541 0.17037,0.15439 0.80925,0.28749 1.58122,0.34074 2.26269,0.69212 0.68679,0.34606 0.99558,0.86248 0.31411,0.51643 0.31411,1.15531 0,0.75068 -0.41527,1.38423 -0.41527,0.63355 -1.16062,0.96364 -0.74536,0.32476 -1.87936,0.32476 -1.99117,0 -2.75782,-0.76665 -0.76666,-0.76665 -0.86781,-1.94858 z"
             id="text200"
             aria-label="FAKE NEWS " /><path
             id="path200"
             style="fill:#e51010;fill-opacity:1;stroke:none;stroke-width:0.223748"
             d="m 127.14545,183.23295 h -4.09346 -4.09346 l 2.04674,-5.50263 0.81519,-2.19164 2.45941,-0.01 0.81886,2.20149 z" /><path
             id="path201"
             style="fill:url(#radialGradient456);stroke:none;stroke-width:0.224373"
             d="m 127.16208,183.23922 h -4.11634 -4.11635 l 2.05817,-5.50264 0.81974,-2.19164 2.47318,-0.01 0.82343,2.20149 z" /><g
             id="text201"
             style="opacity:1"><path
               style="font-size:7.42207px;font-family:'Andale Mono';-inkscape-font-specification:'Andale Mono';baseline-shift:baseline;display:inline;overflow:visible;vector-effect:none;enable-background:accumulate;stop-color:#000000;stop-opacity:1"
               d="m 123.42416,178.31578 -0.17033,1.9135 h -0.31167 l -0.17033,-1.9135 v -1.66344 h 0.65233 z m -0.31167,2.6202 q 0.19208,0 0.32254,0.13046 0.13047,0.13047 0.13047,0.32254 0,0.19208 -0.13409,0.33342 -0.13047,0.14133 -0.31892,0.14133 -0.18483,0 -0.31529,-0.13771 -0.13047,-0.14134 -0.13047,-0.33704 0,-0.1957 0.12684,-0.32254 0.13047,-0.13046 0.31892,-0.13046 z"
               id="path10" /><path
               style="font-size:7.42207px;font-family:'Andale Mono';-inkscape-font-specification:'Andale Mono';baseline-shift:baseline;display:inline;overflow:visible;vector-effect:none;enable-background:accumulate;stop-color:#000000;stop-opacity:1"
               d="m 122.46289,176.34375 v 1.98633 l 0.19727,2.20898 h 0.87695 l 0.19727,-2.20898 v -1.98633 z m 0.61914,0.61719 h 0.0332 v 1.32812 l -0.0176,0.19531 -0.0156,-0.18164 z m 0.0312,3.66601 c -0.19699,0 -0.39944,0.0811 -0.53906,0.22071 -0.14079,0.14079 -0.2168,0.34373 -0.2168,0.54101 0,0.19919 0.0777,0.40038 0.21289,0.54688 l 0.002,0.002 v 0.002 c 0.13712,0.14474 0.34099,0.23438 0.54101,0.23438 0.20294,0 0.40761,-0.0934 0.54492,-0.24219 0.1357,-0.14472 0.2168,-0.34443 0.2168,-0.54297 0,-0.19807 -0.0801,-0.40038 -0.2207,-0.54101 -0.14064,-0.14064 -0.34295,-0.22071 -0.54102,-0.22071 z m 0,0.61914 c 0.058,0 0.0702,0.006 0.10352,0.0391 0.0333,0.0333 0.0391,0.0455 0.0391,0.10351 0,0.0561 -0.008,0.0776 -0.0488,0.1211 l -0.002,0.002 c -0.0366,0.0397 -0.0435,0.043 -0.0918,0.043 -0.0444,0 -0.055,-0.005 -0.0879,-0.0391 -0.0387,-0.042 -0.0488,-0.0652 -0.0488,-0.12695 0,-0.0636 0.007,-0.0752 0.0352,-0.10351 0.0343,-0.0343 0.0473,-0.0391 0.10156,-0.0391 z"
               id="path11" /></g></g></g><path
         style="font-weight:bold;font-size:2.97818px;line-height:0.386061px;font-family:'Noto Serif Telugu';-inkscape-font-specification:'Noto Serif Telugu Bold';letter-spacing:-0.0491398px;fill:#ffcc00;stroke:#fff317;stroke-width:0;fill-opacity:1"
         d="m 37.233042,2.5361666 q -0.197617,0.070103 -0.399487,0.1057905 -0.201871,0.035688 -0.40926,0.035688 -0.618845,0 -0.898268,-0.2651133 -0.279029,-0.266388 -0.13784,-0.7214144 0.141584,-0.4563009 0.58553,-0.72141426 0.444341,-0.26638792 1.063187,-0.26638792 0.207388,0 0.387112,0.0356883 0.179723,0.0356883 0.333836,0.10579043 L 37.635647,1.2386406 q -0.148653,-0.093045 -0.307754,-0.1363805 -0.159101,-0.043336 -0.349898,-0.043336 -0.341775,0 -0.589753,0.168245 -0.247978,0.168245 -0.339731,0.4639484 -0.09136,0.2944288 0.05221,0.4626738 0.14357,0.1682451 0.485345,0.1682451 0.190798,0 0.376791,-0.043335 0.185994,-0.043335 0.392388,-0.1363805 z M 39.29611,1.0589243 q -0.292003,0 -0.504349,0.1656958 -0.212346,0.1656959 -0.305681,0.4664976 -0.09294,0.2995272 0.01658,0.465223 0.10952,0.1656959 0.401523,0.1656959 0.293661,0 0.506008,-0.1656959 0.212346,-0.1656958 0.305285,-0.465223 0.09333,-0.3008017 -0.01619,-0.4664976 -0.10952,-0.1656958 -0.403181,-0.1656958 z m 0.110341,-0.35560882 q 0.597277,0 0.854264,0.26256423 0.256987,0.26256419 0.113425,0.72523799 -0.143166,0.4613992 -0.563093,0.7239634 -0.419927,0.2625643 -1.017205,0.2625643 -0.595618,0 -0.854264,-0.2625643 Q 37.68259,2.1525169 37.825756,1.6911177 37.969318,1.2284439 38.389245,0.96587971 38.810832,0.70331548 39.406451,0.70331548 Z m 1.690249,0.0344137 h 0.81296 L 42.157762,1.7561215 43.04117,0.73772922 h 0.811301 L 43.26201,2.6406825 H 42.658096 L 43.089967,1.2488372 42.200869,2.274877 H 41.796048 L 41.543683,1.2488372 41.111812,2.6406825 h -0.605573 z m 4.088743,0.73670932 q 0.150978,0 0.244775,-0.050983 0.0938,-0.050984 0.124649,-0.1504009 0.03045,-0.098143 -0.03171,-0.1491262 -0.06177,-0.052258 -0.212741,-0.052258 h -0.353389 l -0.124973,0.4027683 z m -0.23669,0.832303 q 0.192456,0 0.308063,-0.062454 0.117269,-0.062454 0.156423,-0.1886384 0.03836,-0.1236347 -0.03888,-0.1848146 -0.07684,-0.062454 -0.270964,-0.062454 H 44.728437 L 44.573802,2.306742 Z m 0.806335,-0.6844513 q 0.191492,0.045885 0.265949,0.1695196 0.07446,0.1236346 0.0187,0.3033509 -0.08543,0.27531 -0.369576,0.4104159 -0.284151,0.1351059 -0.778564,0.1351059 H 43.831429 L 44.42189,0.73772923 h 0.958961 q 0.515982,0 0.709422,0.11981086 0.195099,0.11981087 0.113233,0.38364961 -0.04311,0.1389296 -0.158171,0.2370726 -0.114667,0.096868 -0.290238,0.1440279 z m 2.220854,0.6717055 H 46.977165 L 46.711978,2.6406825 H 46.069905 L 47.577851,0.73772923 H 48.33938 L 48.666404,2.6406825 H 48.02433 Z M 47.24599,1.9409361 h 0.678573 L 47.821025,1.1838335 Z m 1.724194,-1.20320687 h 2.282928 L 51.138025,1.1086331 h -0.821256 l -0.475375,1.5320494 h -0.638755 l 0.475374,-1.5320494 h -0.822915 z"
         id="text4"
         aria-label="COMBAT" /></g><text
       xml:space="preserve"
       style="font-style:normal;font-variant:normal;font-weight:bold;font-stretch:normal;font-size:3.52777px;line-height:0.457306px;font-family:'Noto Serif Telugu';-inkscape-font-specification:'Noto Serif Telugu Bold';letter-spacing:-0.0582083px;writing-mode:lr-tb;direction:ltr;opacity:0.250194;fill:#ffff00;stroke:#fff317;stroke-width:0"
       x="47.138882"
       y="2.3049424"
       id="text11"><tspan
         sodipodi:role="line"
         id="tspan11"
         style="stroke-width:0" /></text></g></svg>
