<?xml version="1.0" encoding="UTF-8" standalone="no"?>
<!-- Created with Inkscape (http://www.inkscape.org/) -->

<svg
   width="284.97491"
   height="58"
   viewBox="0 0 75.399612 15.345833"
   version="1.1"
   id="svg1"
   xml:space="preserve"
   xmlns:xlink="http://www.w3.org/1999/xlink"
   xmlns="http://www.w3.org/2000/svg"
   xmlns:svg="http://www.w3.org/2000/svg"><defs
     id="defs1"><linearGradient
       id="linearGradient299"><stop
         style="stop-color:#f60000;stop-opacity:1;"
         offset="0.41078657"
         id="stop298" /><stop
         style="stop-color:#fff317;stop-opacity:1;"
         offset="1"
         id="stop299" /></linearGradient><linearGradient
       id="swatch413"><stop
         style="stop-color:#000000;stop-opacity:1;"
         offset="0"
         id="stop413" /></linearGradient><radialGradient
       xlink:href="#linearGradient299"
       id="radialGradient109"
       gradientUnits="userSpaceOnUse"
       gradientTransform="matrix(1.1026081,0,0,1.0217528,36.03238,-56.371443)"
       cx="63.990456"
       cy="164.92706"
       fx="63.990456"
       fy="164.92706"
       r="3.9350705" /><filter
       style="color-interpolation-filters:sRGB"
       id="filter328"
       x="-0.20233212"
       y="-0.22780675"
       width="1.4046642"
       height="1.4428154"><feFlood
         result="flood"
         in="SourceGraphic"
         flood-opacity="1.000000"
         flood-color="rgb(255,255,0)"
         id="feFlood327" /><feGaussianBlur
         result="blur"
         in="SourceGraphic"
         stdDeviation="0.700000"
         id="feGaussianBlur327" /><feOffset
         result="offset"
         in="blur"
         dx="0.000000"
         dy="-0.100000"
         id="feOffset327" /><feComposite
         result="comp1"
         operator="in"
         in="flood"
         in2="offset"
         id="feComposite327" /><feComposite
         result="comp2"
         operator="over"
         in="SourceGraphic"
         in2="comp1"
         id="feComposite328" /></filter></defs><g
     id="layer1"
     transform="translate(-96.417915,-104.61045)"><g
       id="g329"
       transform="matrix(1.053546,0,0,1.053546,-5.1627898,-5.6014668)"><path
         id="path2"
         style="fill:#ffff00;fill-opacity:1;stroke:none;stroke-width:0.226925;filter:url(#filter328)"
         d="m 110.74671,116.0436 h -4.15159 -4.15159 l 2.07581,-5.58078 0.82676,-2.22276 2.49434,-0.0101 0.83049,2.23275 z" /><g
         id="g328"><text
           xml:space="preserve"
           style="font-size:11.0583px;writing-mode:lr-tb;direction:ltr;fill:#ffffff;stroke-width:0.921534"
           x="95.922371"
           y="116.11568"
           id="text2"><tspan
             id="tspan2"
             style="font-style:italic;font-variant:normal;font-weight:bold;font-stretch:normal;font-family:sans-serif;-inkscape-font-specification:'sans-serif Bold Italic';fill:#ffffff;stroke-width:0.921534"
             x="95.922371"
             y="116.11568"><tspan
   style="font-style:normal;font-variant:normal;font-weight:normal;font-stretch:normal;font-family:'Arial Black';-inkscape-font-specification:'Arial Black, ';fill:#ffffff;stroke-width:0.921534"
   id="tspan1">FAKE NEWS</tspan> </tspan></text><path
           id="path3"
           style="fill:url(#radialGradient109);stroke:none;stroke-width:0.227559"
           d="m 110.76358,116.04996 h -4.1748 -4.1748 l 2.0874,-5.58079 0.83138,-2.22276 2.5083,-0.0101 0.83512,2.23275 z" /><text
           xml:space="preserve"
           style="font-style:italic;font-variant:normal;font-weight:bold;font-stretch:normal;font-size:7.52747px;font-family:sans-serif;-inkscape-font-specification:'sans-serif Bold Italic';writing-mode:lr-tb;direction:ltr;fill:#000000;stroke:#000000;stroke-width:0.627282"
           x="104.44382"
           y="115.08482"
           id="text3"><tspan
             id="tspan3"
             style="font-style:normal;font-variant:normal;font-weight:normal;font-stretch:normal;font-family:'Andale Mono';-inkscape-font-specification:'Andale Mono';stroke-width:0.627282"
             x="104.44382"
             y="115.08482">!</tspan></text></g><g
         id="g298"><g
           id="g297"><path
             d="m 96.549392,117.63477 0.919637,1.52794 h 0.967422 l -0.919632,-1.52794 z"
             style="fill:#1a1a1a;stroke-width:0.108689"
             id="path4" /><path
             d="m 98.631131,117.63477 0.91963,1.52794 h 0.967419 l -0.919619,-1.52794 z"
             style="fill:#1a1a1a;stroke-width:0.108689"
             id="path5" /><path
             d="m 100.84435,117.63477 0.91963,1.52794 h 0.96742 l -0.91962,-1.52794 z"
             style="fill:#1a1a1a;stroke-width:0.108689"
             id="path6" /><path
             d="m 103.01375,117.63477 0.91961,1.52794 h 0.96743 l -0.91962,-1.52794 z"
             style="fill:#1a1a1a;stroke-width:0.108689"
             id="path7" /><path
             d="m 105.17218,117.63477 0.91963,1.52794 h 0.96742 l -0.91962,-1.52794 z"
             style="fill:#1a1a1a;stroke-width:0.108689"
             id="path8" /><path
             d="m 107.35252,117.63477 0.91963,1.52794 h 0.96742 l -0.91962,-1.52794 z"
             style="fill:#1a1a1a;stroke-width:0.108689"
             id="path9" /><path
             d="m 109.54382,117.63477 0.91963,1.52794 h 0.96743 l -0.91962,-1.52794 z"
             style="fill:#1a1a1a;stroke-width:0.108689"
             id="path10" /><path
             d="m 111.74608,117.63477 0.91964,1.52794 h 0.96742 l -0.91962,-1.52794 z"
             style="fill:#1a1a1a;stroke-width:0.108689"
             id="path11" /><path
             d="m 114.00313,117.63477 0.91963,1.52794 h 0.96743 l -0.91963,-1.52794 z"
             style="fill:#1a1a1a;stroke-width:0.108689"
             id="path12" /><path
             d="m 116.11774,117.63477 0.91963,1.52794 h 0.96743 l -0.91963,-1.52794 z"
             style="fill:#1a1a1a;stroke-width:0.108689"
             id="path13" /><path
             d="m 118.30904,117.63477 0.91963,1.52794 h 0.96743 l -0.91963,-1.52794 z"
             style="fill:#1a1a1a;stroke-width:0.108689"
             id="path14" /><path
             d="m 120.50034,117.63477 0.91963,1.52794 h 0.96743 l -0.91964,-1.52794 z"
             style="fill:#1a1a1a;stroke-width:0.108689"
             id="path15" /><path
             d="m 122.61495,117.63477 0.91962,1.52794 h 0.96743 l -0.91963,-1.52794 z"
             style="fill:#1a1a1a;stroke-width:0.108689"
             id="path16" /><path
             d="m 124.8172,117.63477 0.91964,1.52794 h 0.96743 l -0.91963,-1.52794 z"
             style="fill:#1a1a1a;stroke-width:0.108689"
             id="path17" /><path
             d="m 96.417911,117.63477 0.919637,1.52794 h 0.967423 l -0.919623,-1.52794 z"
             style="fill:#1a1a1a;stroke-width:0.108689"
             id="path18" /><path
             d="m 126.88056,117.63477 0.91962,1.52794 h 0.96744 l -0.91964,-1.52794 z"
             style="fill:#1a1a1a;stroke-width:0.108689"
             id="path19" /><path
             d="m 128.9623,117.63477 0.91963,1.52794 h 0.96743 l -0.91964,-1.52794 z"
             style="fill:#1a1a1a;stroke-width:0.108689"
             id="path20" /><path
             d="m 131.17552,117.63477 0.91961,1.52794 h 0.96744 l -0.91963,-1.52794 z"
             style="fill:#1a1a1a;stroke-width:0.108689"
             id="path21" /><path
             d="m 133.3449,117.63477 0.91963,1.52794 h 0.96742 l -0.91962,-1.52794 z"
             style="fill:#1a1a1a;stroke-width:0.108689"
             id="path22" /><path
             d="m 135.50333,117.63477 0.91963,1.52794 h 0.96743 l -0.91962,-1.52794 z"
             style="fill:#1a1a1a;stroke-width:0.108689"
             id="path23" /><path
             d="m 137.68368,117.63477 0.91962,1.52794 h 0.96744 l -0.91963,-1.52794 z"
             style="fill:#1a1a1a;stroke-width:0.108689"
             id="path24" /><path
             d="m 139.87499,117.63477 0.91962,1.52794 h 0.96743 l -0.91963,-1.52794 z"
             style="fill:#1a1a1a;stroke-width:0.108689"
             id="path25" /><path
             d="m 142.07724,117.63477 0.91964,1.52794 h 0.96743 l -0.91964,-1.52794 z"
             style="fill:#1a1a1a;stroke-width:0.108689"
             id="path26" /><path
             d="m 144.33429,117.63477 0.91962,1.52794 h 0.96743 l -0.91962,-1.52794 z"
             style="fill:#1a1a1a;stroke-width:0.108689"
             id="path27" /><path
             d="m 146.4489,117.63477 0.91962,1.52794 h 0.96743 l -0.91963,-1.52794 z"
             style="fill:#1a1a1a;stroke-width:0.108689"
             id="path28" /><path
             d="m 148.6402,117.63477 0.91963,1.52794 h 0.96742 l -0.91961,-1.52794 z"
             style="fill:#1a1a1a;stroke-width:0.108689"
             id="path29" /><path
             d="m 126.74909,117.63477 0.91962,1.52794 h 0.96743 l -0.91963,-1.52794 z"
             style="fill:#1a1a1a;stroke-width:0.108689"
             id="path31" /><path
             d="m 166.09831,117.63477 0.91963,1.52794 h 0.96743 l -0.91963,-1.52794 z"
             style="fill:#1a1a1a;stroke-width:0.108689"
             id="path32" /><text
             xml:space="preserve"
             style="font-style:italic;font-variant:normal;font-weight:bold;font-stretch:normal;font-size:2.47157px;font-family:sans-serif;-inkscape-font-specification:'sans-serif Bold Italic';writing-mode:lr-tb;direction:ltr;fill:#000000;fill-opacity:0.853059;stroke:#000000;stroke-width:0.0264583;stroke-dasharray:none;stroke-opacity:1"
             x="138.05482"
             y="130.21837"
             id="text108"
             transform="scale(1.0930615,0.91486161)"><tspan
               id="tspan108"
               style="font-style:normal;font-variant:normal;font-weight:500;font-stretch:normal;font-family:'FiraCode Nerd Font';-inkscape-font-specification:'FiraCode Nerd Font Medium';fill:#000000;fill-opacity:0.853059;stroke:#000000;stroke-width:0.0264583;stroke-dasharray:none;stroke-opacity:1"
               x="138.05482"
               y="130.21837">b1010code</tspan></text><path
             style="font-weight:500;font-size:2.08618px;font-family:'FiraCode Nerd Font';-inkscape-font-specification:'FiraCode Nerd Font Medium';fill:#ffff00;fill-opacity:1;stroke-width:0.205965"
             d="m 151.45929,118.05333 q 0.0749,-0.0834 0.17734,-0.13103 0.1026,-0.0476 0.22445,-0.0476 0.19257,0 0.31171,0.08 0.12056,0.0788 0.17595,0.22379 0.0569,0.14379 0.0569,0.33861 0,0.18667 -0.0666,0.33279 -0.0665,0.1461 -0.19672,0.22959 -0.12885,0.0835 -0.31865,0.0835 -0.24521,0 -0.38514,-0.15189 l -0.0166,0.12058 H 151.149 v -1.71615 l 0.31033,-0.0289 z m 0.28679,0.91141 q 0.15793,0 0.24384,-0.10782 0.0873,-0.10781 0.0873,-0.33859 0,-0.2354 -0.079,-0.3386 -0.0776,-0.10437 -0.22166,-0.10437 -0.1039,0 -0.18426,0.0521 -0.079,0.0521 -0.13301,0.12292 v 0.57282 q 0.0513,0.0661 0.12328,0.10437 0.0735,0.0371 0.16348,0.0371 z m 2.28734,-0.0371 v 0.20409 h -1.15685 v -0.20409 h 0.46691 v -1.12942 l -0.42117,0.21685 -0.13301,-0.18206 0.58742,-0.30148 h 0.27432 v 1.39611 z m 1.0252,-1.42859 q 0.32142,0 0.48629,0.21685 0.16486,0.21684 0.16486,0.6134 0,0.39889 -0.16486,0.6169 -0.16487,0.21683 -0.48629,0.21683 -0.32142,0 -0.48628,-0.21683 -0.16486,-0.21801 -0.16486,-0.6169 0,-0.39656 0.16486,-0.6134 0.16486,-0.21685 0.48628,-0.21685 z m 0,0.19829 q -0.16487,0 -0.25353,0.14727 -0.0887,0.1461 -0.0887,0.48469 0,0.24699 0.036,0.38498 l 0.54029,-0.92301 q -0.0402,-0.0499 -0.0983,-0.0719 -0.0582,-0.022 -0.13578,-0.022 z m 0.3422,0.63196 q 0,-0.22148 -0.0292,-0.35366 l -0.53338,0.9114 q 0.0749,0.0777 0.22028,0.0777 0.16626,0 0.25354,-0.1461 0.0887,-0.14611 0.0887,-0.48934 z m 1.95761,0.59834 v 0.20409 h -1.15684 v -0.20409 h 0.46689 v -1.12942 l -0.42116,0.21685 -0.13301,-0.18206 0.58742,-0.30148 h 0.27431 v 1.39611 z m 1.02521,-1.42859 q 0.3214,0 0.48627,0.21685 0.16487,0.21684 0.16487,0.6134 0,0.39889 -0.16487,0.6169 -0.16487,0.21683 -0.48627,0.21683 -0.32142,0 -0.48629,-0.21683 -0.16487,-0.21801 -0.16487,-0.6169 0,-0.39656 0.16487,-0.6134 0.16487,-0.21685 0.48629,-0.21685 z m 0,0.19829 q -0.16487,0 -0.25354,0.14727 -0.0887,0.1461 -0.0887,0.48469 0,0.24699 0.036,0.38498 l 0.54031,-0.92301 q -0.0402,-0.0499 -0.0983,-0.0719 -0.0582,-0.022 -0.13577,-0.022 z m 0.3422,0.63196 q 0,-0.22148 -0.0292,-0.35366 l -0.53338,0.9114 q 0.0749,0.0777 0.22028,0.0777 0.16625,0 0.25353,-0.1461 0.0887,-0.14611 0.0887,-0.48934 z m 1.44084,0.62038 q 0.10259,0 0.19119,-0.0301 0.0887,-0.0301 0.16902,-0.0765 l 0.14408,0.16699 q -0.0956,0.0684 -0.23274,0.11137 -0.13578,0.0417 -0.28126,0.0417 -0.22442,0 -0.38514,-0.0788 -0.15933,-0.08 -0.24385,-0.22263 -0.0832,-0.14378 -0.0832,-0.33626 0,-0.18671 0.0846,-0.33281 0.0859,-0.14726 0.2466,-0.23191 0.16072,-0.0859 0.38654,-0.0859 0.2937,0 0.50706,0.14726 l -0.14269,0.16349 q -0.0859,-0.0499 -0.17595,-0.0754 -0.09,-0.0266 -0.18289,-0.0266 -0.17455,0 -0.28401,0.10662 -0.10947,0.10663 -0.10947,0.33513 0,0.22958 0.11089,0.32699 0.11089,0.0975 0.28124,0.0975 z m 1.54335,-1.07492 q 0.32142,0 0.49044,0.17509 0.16902,0.17509 0.16902,0.46731 0,0.1948 -0.0776,0.33974 -0.0762,0.14496 -0.22444,0.22612 -0.14685,0.08 -0.35883,0.08 -0.32003,0 -0.49043,-0.17277 -0.17042,-0.17394 -0.17042,-0.47078 0,-0.19017 0.0762,-0.33512 0.0776,-0.1461 0.22583,-0.22727 0.14825,-0.0823 0.36021,-0.0823 z m 0,0.20176 q -0.16764,0 -0.25215,0.10781 -0.0846,0.10663 -0.0846,0.33512 0,0.22842 0.0832,0.33627 0.0846,0.10662 0.25215,0.10662 0.16764,0 0.25076,-0.10781 0.0846,-0.10781 0.0846,-0.33743 0,-0.22612 -0.0832,-0.33281 -0.0832,-0.10781 -0.25076,-0.10781 z m 1.93544,-0.68993 0.31033,0.0289 v 1.71615 h -0.27291 l -0.0222,-0.15074 q -0.0749,0.087 -0.17872,0.1345 -0.1039,0.0476 -0.23274,0.0476 -0.18843,0 -0.31035,-0.08 -0.12056,-0.0812 -0.1801,-0.22612 -0.0596,-0.14493 -0.0596,-0.33741 0,-0.18672 0.0693,-0.33166 0.0693,-0.14611 0.19812,-0.22957 0.12886,-0.0834 0.31033,-0.0834 0.22584,0 0.36853,0.13333 z m -0.28679,0.68761 q -0.15655,0 -0.24383,0.10899 -0.0873,0.10781 -0.0873,0.33629 0,0.23422 0.079,0.33975 0.0803,0.10437 0.22445,0.10437 0.10532,0 0.18287,-0.0511 0.0776,-0.0511 0.13162,-0.12291 v -0.57978 q -0.054,-0.0649 -0.12614,-0.0998 -0.072,-0.036 -0.1607,-0.036 z m 1.34802,0.52876 q 0.0139,0.18901 0.12612,0.27366 0.11362,0.0846 0.27293,0.0846 0.10675,0 0.19811,-0.0278 0.0929,-0.0279 0.18566,-0.0789 l 0.13438,0.15538 q -0.1026,0.0695 -0.23968,0.11137 -0.13715,0.0417 -0.2937,0.0417 -0.22861,0 -0.38655,-0.0812 -0.15655,-0.0811 -0.23828,-0.22611 -0.0803,-0.14495 -0.0803,-0.33512 0,-0.18437 0.0803,-0.32933 0.0803,-0.1461 0.22998,-0.23074 0.14962,-0.0859 0.35743,-0.0859 0.29095,0 0.45998,0.16348 0.1704,0.16351 0.1704,0.44875 0,0.0313 -0.002,0.0627 -0.001,0.0301 -0.004,0.0533 z m 0.34913,-0.53572 q -0.14546,0 -0.24106,0.087 -0.0956,0.087 -0.10947,0.27134 h 0.67748 q -0.004,-0.17278 -0.0887,-0.26553 -0.0832,-0.0928 -0.23828,-0.0928 z"
             id="path288"
             aria-label="b1010code" /></g><g
           id="g296"><text
             xml:space="preserve"
             style="font-style:italic;font-variant:normal;font-weight:bold;font-stretch:normal;font-size:2.13px;font-family:sans-serif;-inkscape-font-specification:'sans-serif Bold Italic';writing-mode:lr-tb;direction:ltr;fill:#ffff00;fill-opacity:0.853059;stroke-width:0.177501"
             x="132.85811"
             y="110.4308"
             id="text32"
             transform="scale(1.0370744,0.96425098)"><tspan
               id="tspan32"
               style="font-style:italic;font-variant:normal;font-weight:bold;font-stretch:normal;font-family:Arial;-inkscape-font-specification:'Arial Bold Italic';fill:#ffff00;fill-opacity:0.853059;stroke-width:0.177501"
               x="132.85811"
               y="110.4308">AGÊNCIA DE COMBATE</tspan></text><g
             id="g108"
             style="fill:#1a1a1a"
             transform="matrix(1.0188276,0,0,1.0142011,-18.970229,-70.31201)"><path
               d="m 113.38486,174.28116 0.90264,-1.50655 h 0.94955 l -0.90264,1.50655 z"
               style="fill:#1a1a1a;stroke-width:0.106923"
               id="path83" /><path
               d="m 115.42813,174.28116 0.90263,-1.50655 h 0.94955 l -0.90263,1.50655 z"
               style="fill:#1a1a1a;stroke-width:0.106923"
               id="path84" /><path
               d="m 117.60045,174.28116 0.90263,-1.50655 h 0.94955 l -0.90263,1.50655 z"
               style="fill:#1a1a1a;stroke-width:0.106923"
               id="path85" /><path
               d="m 119.72975,174.28116 0.90263,-1.50655 h 0.94955 l -0.90263,1.50655 z"
               style="fill:#1a1a1a;stroke-width:0.106923"
               id="path86" /><path
               d="m 121.8483,174.28116 0.90263,-1.50655 h 0.94955 l -0.90263,1.50655 z"
               style="fill:#1a1a1a;stroke-width:0.106923"
               id="path87" /><path
               d="m 123.98835,174.28116 0.90263,-1.50655 h 0.94955 l -0.90263,1.50655 z"
               style="fill:#1a1a1a;stroke-width:0.106923"
               id="path88" /><path
               d="m 126.13916,174.28116 0.90263,-1.50655 h 0.94955 l -0.90263,1.50655 z"
               style="fill:#1a1a1a;stroke-width:0.106923"
               id="path89" /><path
               d="m 128.30072,174.28116 0.90264,-1.50655 h 0.94955 l -0.90264,1.50655 z"
               style="fill:#1a1a1a;stroke-width:0.106923"
               id="path90" /><path
               d="m 130.51606,174.28116 0.90263,-1.50655 h 0.94955 l -0.90263,1.50655 z"
               style="fill:#1a1a1a;stroke-width:0.106923"
               id="path93" /><path
               d="m 132.59159,174.28116 0.90263,-1.50655 h 0.94955 l -0.90263,1.50655 z"
               style="fill:#1a1a1a;stroke-width:0.106923"
               id="path94" /><path
               d="m 134.74239,174.28116 0.90264,-1.50655 h 0.94955 l -0.90263,1.50655 z"
               style="fill:#1a1a1a;stroke-width:0.106923"
               id="path96" /><path
               d="m 136.8932,174.28116 0.90263,-1.50655 h 0.94956 l -0.90264,1.50655 z"
               style="fill:#1a1a1a;stroke-width:0.106923"
               id="path98" /><path
               d="m 138.96873,174.28116 0.90263,-1.50655 h 0.94955 l -0.90263,1.50655 z"
               style="fill:#1a1a1a;stroke-width:0.106923"
               id="path99" /><path
               d="m 141.13029,174.28116 0.90264,-1.50655 h 0.94955 l -0.90263,1.50655 z"
               style="fill:#1a1a1a;stroke-width:0.106923"
               id="path100" /><path
               d="m 113.25581,174.28116 0.90264,-1.50655 h 0.94955 l -0.90264,1.50655 z"
               style="fill:#1a1a1a;stroke-width:0.106923"
               id="path101" /><path
               d="m 179.52999,174.28116 0.90263,-1.50655 h 0.94955 l -0.90263,1.50655 z"
               style="fill:#1a1a1a;stroke-width:0.106923"
               id="path102" /><path
               d="m 181.64854,174.28116 0.90263,-1.50655 h 0.94955 l -0.90263,1.50655 z"
               style="fill:#1a1a1a;stroke-width:0.106923"
               id="path103" /><path
               d="m 143.0287,174.28116 0.90263,-1.50655 h 0.94955 l -0.90263,1.50655 z"
               style="fill:#1a1a1a;stroke-width:0.106923"
               id="path104" /><path
               d="m 145.1795,174.28116 0.90264,-1.50655 h 0.94955 l -0.90263,1.50655 z"
               style="fill:#1a1a1a;stroke-width:0.106923"
               id="path105" /><path
               d="m 147.33031,174.28116 0.90263,-1.50655 h 0.94956 l -0.90264,1.50655 z"
               style="fill:#1a1a1a;stroke-width:0.106923"
               id="path106" /><path
               d="m 149.40584,174.28116 0.90263,-1.50655 h 0.94955 l -0.90263,1.50655 z"
               style="fill:#1a1a1a;stroke-width:0.106923"
               id="path107" /><path
               d="m 151.5674,174.28116 0.90264,-1.50655 h 0.94955 l -0.90263,1.50655 z"
               style="fill:#1a1a1a;stroke-width:0.106923"
               id="path108" /></g><text
             xml:space="preserve"
             style="font-style:italic;font-variant:normal;font-weight:bold;font-stretch:normal;font-size:2.13px;font-family:sans-serif;-inkscape-font-specification:'sans-serif Bold Italic';writing-mode:lr-tb;direction:ltr;fill:#000000;fill-opacity:0.853059;stroke:#000000;stroke-width:0.0264583;stroke-dasharray:none"
             x="132.85811"
             y="110.43076"
             id="text289"
             transform="scale(1.0370744,0.96425098)"><tspan
               id="tspan289"
               style="font-style:italic;font-variant:normal;font-weight:bold;font-stretch:normal;font-family:Arial;-inkscape-font-specification:'Arial Bold Italic';fill:#000000;fill-opacity:0.853059;stroke:#000000;stroke-width:0.0264583;stroke-dasharray:none"
               x="132.85811"
               y="110.43076">AGÊNCIA DE COMBATE</tspan></text><text
             xml:space="preserve"
             style="font-style:italic;font-variant:normal;font-weight:bold;font-stretch:normal;font-size:2.13px;font-family:sans-serif;-inkscape-font-specification:'sans-serif Bold Italic';writing-mode:lr-tb;direction:ltr;fill:#ffff00;fill-opacity:0.853059;stroke-width:0;stroke-dasharray:none"
             x="132.85811"
             y="110.43079"
             id="text288"
             transform="scale(1.0370744,0.96425098)"><tspan
               id="tspan288"
               style="font-style:italic;font-variant:normal;font-weight:bold;font-stretch:normal;font-family:Arial;-inkscape-font-specification:'Arial Bold Italic';fill:#ffff00;fill-opacity:0.853059;stroke-width:0;stroke-dasharray:none"
               x="132.85811"
               y="110.43079">AGÊNCIA DE COMBATE</tspan></text><text
             xml:space="preserve"
             style="font-style:italic;font-variant:normal;font-weight:bold;font-stretch:normal;font-size:2.13px;font-family:sans-serif;-inkscape-font-specification:'sans-serif Bold Italic';writing-mode:lr-tb;direction:ltr;fill:#ffff00;fill-opacity:0.853059;stroke-width:0;stroke-dasharray:none"
             x="132.85811"
             y="110.43079"
             id="text295"
             transform="scale(1.0370744,0.96425098)"><tspan
               id="tspan295"
               style="font-style:italic;font-variant:normal;font-weight:bold;font-stretch:normal;font-family:Arial;-inkscape-font-specification:'Arial Bold Italic';fill:#ffff00;fill-opacity:0.853059;stroke-width:0;stroke-dasharray:none"
               x="132.85811"
               y="110.43079">AGÊNCIA DE COMBATE</tspan></text></g></g></g></g></svg>
